<svg xmlns="http://www.w3.org/2000/svg" viewBox="0 0 791.88 74.04"><g id="Layer_15" data-name="Layer 15"><rect x="1.56" y="0.52" width="8.76" height="73.45"/><path d="M293.43,380H291.6a1.28,1.28,0,0,1-1.28-1.28,1.07,1.07,0,0,1,0-.25h0S292,367.81,292,345.34c.77.05,1.25.05,1.25.05Z" transform="translate(-290.32 -306.01)"/><path d="M293.43,306.53H291.6a1.28,1.28,0,0,0-1.28,1.28,1,1,0,0,0,0,.24h0S292,318.7,292,341.17c.77-.05,1.25-.05,1.25-.05Z" transform="translate(-290.32 -306.01)"/><path d="M299.09,380h1.82a1.28,1.28,0,0,0,1.28-1.28,1.07,1.07,0,0,0,0-.25h0s-1.69-10.64-1.69-33.11c-.77.05-1.24.05-1.24.05Z" transform="translate(-290.32 -306.01)"/><path d="M302.19,307.81a1,1,0,0,1,0,.24s-.42,2.66-.85,8.13c-.19,2.54-.39,5.68-.54,9.44,0,.67-.06,1.36-.08,2.07v.05c0,.41,0,.84,0,1.27,0,.14,0,.28,0,.43,0,1.16-.07,2.36-.09,3.62,0,1.05,0,2.13-.05,3.25q0,2.32,0,4.86c-.76-.05-1.24-.05-1.24-.05l0-4.81v-3.25l0-4.05v-3.39l-.08-19.09h1.82A1.28,1.28,0,0,1,302.19,307.81Z" transform="translate(-290.32 -306.01)"/><rect x="32.01" y="0.51" width="8.76" height="73.46"/><path d="M323.88,380h-1.83a1.28,1.28,0,0,1-1.28-1.28,1,1,0,0,1,0-.25h0s1.69-10.64,1.69-33.11c.77.05,1.25.05,1.25.05Z" transform="translate(-290.32 -306.01)"/><path d="M323.88,306.52l-.08,19.1V329l0,4.05v3.25l0,4.8s-.48,0-1.25.05c0-1.68,0-3.3,0-4.85,0-1.12,0-2.2,0-3.25s-.06-2.24-.09-3.3c0-.25,0-.5,0-.75,0-.43,0-.86,0-1.28h0v0c0-.71,0-1.41-.07-2.08-.16-3.76-.36-6.9-.55-9.44-.43-5.47-.85-8.13-.85-8.13a1,1,0,0,1,0-.25,1.29,1.29,0,0,1,1.28-1.28Z" transform="translate(-290.32 -306.01)"/><path d="M329.53,380h1.83a1.28,1.28,0,0,0,1.28-1.28,1,1,0,0,0,0-.25h0s-1.69-10.64-1.69-33.11c-.77.05-1.25.05-1.25.05Z" transform="translate(-290.32 -306.01)"/><path d="M329.53,306.52h1.83a1.29,1.29,0,0,1,1.28,1.28,1,1,0,0,1,0,.25h0s-1.69,10.64-1.69,33.11c-.77-.05-1.25-.05-1.25-.05Z" transform="translate(-290.32 -306.01)"/><rect x="5.94" y="23" width="31.65" height="4.05"/><path d="M324.86,325.62v10.69h-2.53v-2a1.28,1.28,0,0,0-1.29-1.28H301.92a1.28,1.28,0,0,0-1.28,1.28v2h-3.41V325.62h3.54c0,.67-.06,1.36-.08,2.07v.05A1.29,1.29,0,0,0,302,329h19a1.28,1.28,0,0,0,1.28-1.28h0v0c0-.71,0-1.41-.07-2.08Z" transform="translate(-290.32 -306.01)"/><path d="M353.35,357.35a123.13,123.13,0,0,0,2,21.12h0a1,1,0,0,1,0,.25A1.28,1.28,0,0,1,354.1,380h-1.82l.09-21Z" transform="translate(-290.32 -306.01)"/><path d="M400.23,378.27l0,0a.06.06,0,0,0,0,0,1.51,1.51,0,0,1,.06.38A1.28,1.28,0,0,1,399,380h-9.25l-3.16-32.24s.45-.15,1.15-.45c7.3,21.25,12.37,30.76,12.37,30.76h0s0,0,0,.06A.84.84,0,0,1,400.23,378.27Z" transform="translate(-290.32 -306.01)"/><path d="M397.92,376.81l-8.28,2.85-15-43.7h0l-.71-2.06s0,0,0-.05l-.26-.77-.16-.47-.67-1.94-.56-1.64-.62-1.78-1.82-5.3-1.18-3.46-.25-.73-1.11-3.22,4.23-4.43,2.58-2.7Z" transform="translate(-290.32 -306.01)"/><path d="M391.29,379.34l-1.73.59a1.27,1.27,0,0,1-1.62-.8,1.05,1.05,0,0,1-.06-.24h0S386,368.28,378.73,347c.73-.2,1.19-.36,1.19-.36Z" transform="translate(-290.32 -306.01)"/><rect x="98.79" y="72.82" width="1.63" height="1.17"/><path d="M372,308.71l-.48,1.39-2.62,7.65-.25.73-1.19,3.46-1.82,5.3L365,329l-.56,1.64-.67,1.94-.16.47-.26.77s0,0,0,.05l-.71,2.07-15,43.68-3.83-1.32,20.63-60.06.17-.51,3.56-10.35Z" transform="translate(-290.32 -306.01)"/><circle cx="54.69" cy="72.69" r="1.28"/><polygon points="62.97 57.64 54.69 70.94 54.69 73.97 62.95 73.97 62.97 57.64"/><circle cx="82.55" cy="1.81" r="1.28"/><circle cx="79.04" cy="1.81" r="1.28"/><polygon points="79.03 0.53 82.55 0.53 83.83 4.31 82.32 10.31 77.22 8.27 79.03 0.53"/><rect x="72.5" y="23.01" width="15.41" height="4.05"/><path d="M342,378.27l0,0v0a1.17,1.17,0,0,0-.07.38,1.29,1.29,0,0,0,1.28,1.28h9.25l.18-18.67s2.53-13.72,1.83-14c-7.3,21.25-12.36,30.76-12.36,30.76h0l0,.06Z" transform="translate(-290.32 -306.01)"/><path d="M366.07,317.94l-1.65,12.72h9.22l-2.22-12.89ZM366.8,329a1.29,1.29,0,0,1-1.28-1.28,1.35,1.35,0,0,1,.1-.5l1.82-5.3a1.31,1.31,0,0,1,1.19-.79,1.28,1.28,0,0,1,1.18.79l1.82,5.3a1.35,1.35,0,0,1,.1.5,1.28,1.28,0,0,1-1.28,1.28Z" transform="translate(-290.32 -306.01)"/><path d="M374.63,332.6V336l-.71-2.06s0,0,0-.05a1.29,1.29,0,0,0-1.18-.77h-8.19a1.29,1.29,0,0,0-1.18.77s0,0,0,.05l-.71,2.07h-.34V332.6Z" transform="translate(-290.32 -306.01)"/><path d="M411.38,380h-1.82a1.24,1.24,0,0,1-.73-.23,1.27,1.27,0,0,1-.55-1.05,1.1,1.1,0,0,1,0-.25s.42-2.66.85-8.13c.26-3.35.52-7.76.68-13.25q.17-5.21.17-11.73c.76.05,1.24.05,1.24.05Z" transform="translate(-290.32 -306.01)"/><path d="M411.38,306.49h-1.83a1.29,1.29,0,0,0-1.28,1.29,1,1,0,0,0,0,.24h0S410,318.67,410,341.14c.77-.05,1.25-.05,1.25-.05Z" transform="translate(-290.32 -306.01)"/><path d="M420.14,378.67a1.28,1.28,0,0,1-1.28,1.28H417v-.33l.14-34.26s.48,0,1.24-.05q0,6.53.17,11.73c.16,5.49.42,9.9.68,13.25.43,5.47.85,8.13.85,8.13A2.29,2.29,0,0,1,420.14,378.67Z" transform="translate(-290.32 -306.01)"/><path d="M445.53,311.32c-3.52-2.95-8.85-4.83-14.81-4.83H409.83V380h8.76V333h12.13a26.18,26.18,0,0,0,8.64-1.42,19.71,19.71,0,0,0,6.17-3.41,10.32,10.32,0,0,0,0-16.88ZM430.72,329H418.59V310.55h12.13c5.76,0,10.43,4.12,10.43,9.21S436.48,329,430.72,329Z" transform="translate(-290.32 -306.01)"/><path d="M445.53,328.2V311.32a10.32,10.32,0,0,1,0,16.88Z" transform="translate(-290.32 -306.01)"/><path d="M454.29,362.63V380H446.8a1.28,1.28,0,0,1-1.27-1.28V336.8a35.53,35.53,0,0,1,7.16,13.85,44,44,0,0,1,1.56,10c0,.1,0,.2,0,.31C454.28,361.51,454.29,362.07,454.29,362.63Z" transform="translate(-290.32 -306.01)"/><path d="M454.29,362.63a44.94,44.94,0,0,1-1.7,12.38,38.49,38.49,0,0,1-1.78,4.94h-4a1.28,1.28,0,0,1-1.27-1.28v-16c0-16.34-7-29.6-15.66-29.6h-2.35v-3.9a18.31,18.31,0,0,1,2.35-.16,18.78,18.78,0,0,1,9.49,2.64,24.6,24.6,0,0,1,6.17,5.19,35.53,35.53,0,0,1,7.16,13.85,44,44,0,0,1,1.56,10c0,.1,0,.2,0,.31C454.28,361.51,454.29,362.07,454.29,362.63Z" transform="translate(-290.32 -306.01)"/><path d="M455.67,378.67a1.28,1.28,0,0,1-1.28,1.28h-1.82v-.33l0-4.61.1-24.36a44,44,0,0,1,1.56,10c0,.1,0,.2,0,.31.15,3.71.34,6.82.54,9.33.43,5.47.85,8.13.85,8.13A2.29,2.29,0,0,1,455.67,378.67Z" transform="translate(-290.32 -306.01)"/><path d="M448.09,378.67a1.28,1.28,0,1,1-2.56,0,1.28,1.28,0,1,1,2.56,0Z" transform="translate(-290.32 -306.01)"/><path d="M425.36,331.46V333h-5.5a1.27,1.27,0,0,0-1.27,1.27v5.39h-1.46v-8.23Z" transform="translate(-290.32 -306.01)"/><path d="M425.36,330.54V329h-5.5a1.27,1.27,0,0,1-1.27-1.27v-5.39h-1.46v8.23Z" transform="translate(-290.32 -306.01)"/><path d="M425.36,309v1.57h-5.5a1.27,1.27,0,0,0-1.27,1.27v5.39h-1.46V309Z" transform="translate(-290.32 -306.01)"/><rect x="173.16" y="0.53" width="8.76" height="73.46"/><path d="M465,379.67V380h-1.82a1.27,1.27,0,0,1-1.15-.72,1.32,1.32,0,0,1-.13-.56,2,2,0,0,1,0-.25s.22-1.34.5-4.08c.11-1.12.23-2.47.35-4.05.26-3.35.52-7.76.68-13.25q.16-5.2.17-11.73c.76.05,1.24.05,1.24.05l.12,29.72Z" transform="translate(-290.32 -306.01)"/><path d="M465,306.54v.34l0,4.32-.12,29.93s-.48,0-1.24.05q0-6.53-.17-11.73c-.16-5.49-.42-9.9-.68-13.25-.13-1.71-.26-3.14-.38-4.31-.27-2.56-.47-3.82-.47-3.82a2,2,0,0,1,0-.25,1.22,1.22,0,0,1,.09-.46,1.26,1.26,0,0,1,1.19-.82Z" transform="translate(-290.32 -306.01)"/><path d="M472.24,306.5c-.77,0-1.75,0-2.89,0s-2.73.14-4.32.34c-.5.06-1,.13-1.55.22s-1,.16-1.46.26a1.22,1.22,0,0,0-.09.46,2,2,0,0,0,0,.25s.2,1.26.47,3.82c.12,1.17.25,2.6.38,4.31.26,3.35.52,7.76.68,13.25v27.64c-.16,5.49-.42,9.9-.68,13.25-.12,1.58-.24,2.93-.35,4.05-.28,2.74-.5,4.08-.5,4.08a2,2,0,0,0,0,.25,1.32,1.32,0,0,0,.13.56l1.42.21,1.55.18c2.83.27,5.34.28,7.21.28,9.5,0,35.7,0,35.7-36.64S479.82,306.5,472.24,306.5ZM477,375.58a28.94,28.94,0,0,1-3.52.29c-.51,0-.94,0-1.27,0V310.55h1.28a32.81,32.81,0,0,1,3.63.26c8.41,1.06,22,6.33,22,32.49C499.18,369,485.11,374.43,477,375.58Z" transform="translate(-290.32 -306.01)"/><path d="M472.24,310.55v65.34c-.42,0-1,0-1.66,0a30.34,30.34,0,0,1-5.57-.74c-.5-.12-1-.25-1.53-.4l-1-.34c.11-1.12.23-2.47.35-4.05.26-3.35.52-7.76.68-13.25V329.45c-.16-5.49-.42-9.9-.68-13.25-.13-1.71-.26-3.14-.38-4.31.36-.12.71-.22,1.06-.32.52-.14,1-.26,1.53-.37a32.08,32.08,0,0,1,6.45-.64Z" transform="translate(-290.32 -306.01)"/><path d="M477,375.58v2.61h-6.45v-5.73h1.66v2.12a1.28,1.28,0,0,0,1.27,1.29A28.94,28.94,0,0,0,477,375.58Z" transform="translate(-290.32 -306.01)"/><path d="M477.15,309.84v1a32.81,32.81,0,0,0-3.63-.26h0a1.27,1.27,0,0,0-1.27,1.27v2.11h-.78v-4.1Z" transform="translate(-290.32 -306.01)"/><rect x="279.65" y="0.52" width="8.76" height="73.46"/><path d="M571.52,380H569.7a1.29,1.29,0,0,1-1.28-1.28,1,1,0,0,1,0-.25h0s1.69-10.64,1.69-33.11c.77.05,1.24.05,1.24.05Z" transform="translate(-290.32 -306.01)"/><path d="M571.53,306.53h-1.82a1.28,1.28,0,0,0-1.28,1.29,1,1,0,0,0,0,.24h0s1.7,10.65,1.7,33.12c.76-.06,1.24-.06,1.24-.06Z" transform="translate(-290.32 -306.01)"/><path d="M577.18,380H579a1.29,1.29,0,0,0,1.28-1.28,1,1,0,0,0,0-.25h0s-1.7-10.64-1.7-33.11c-.76.05-1.24.05-1.24.05Z" transform="translate(-290.32 -306.01)"/><rect x="321.12" y="0.52" width="8.76" height="73.46"/><path d="M613,380h-1.82a1.29,1.29,0,0,1-1.28-1.29,1,1,0,0,1,0-.24h0s1.69-10.65,1.69-33.12c.77.06,1.24.06,1.24.06Z" transform="translate(-290.32 -306.01)"/><path d="M618.64,380h1.83a1.29,1.29,0,0,0,1.28-1.29,1,1,0,0,0,0-.24h0S620,367.82,620,345.35c-.77.06-1.25.06-1.25.06Z" transform="translate(-290.32 -306.01)"/><path d="M618.64,306.53h1.83a1.29,1.29,0,0,1,1.28,1.29,1,1,0,0,1,0,.24h0S620,318.71,620,341.18c-.77-.06-1.25-.06-1.25-.06Z" transform="translate(-290.32 -306.01)"/><rect x="570.99" y="318.1" width="31.08" height="4.05" transform="translate(195.89 -646.52) rotate(52.74)"/><path d="M618.41,311.83l-7,9.16-5.65,7.42-6.59,8.68-2.4,3.15-.24.05a1.25,1.25,0,0,1-1.31-.76c-1.08-2.87-1.87-5.32-3-7.73l.33-.42,2.18-2.87.36-.48,16.36-21.5Z" transform="translate(-290.32 -306.01)"/><path d="M605.79,328.41c-3.31-.16-7.62-.05-10.36.07l-.71,0-1.19.07-.79.09c-.7.08-4.74-3.63-2.5-.32l0,0,0,0a27.78,27.78,0,0,1,1.92,3.38c1.17,2.41,2,4.86,3,7.73a1.25,1.25,0,0,0,1.31.76l.24-.05a1.29,1.29,0,0,0,.73-.6,18.84,18.84,0,0,1,1.28-2l.39-.52Z" transform="translate(-290.32 -306.01)"/><path d="M640.09,357.15a122.58,122.58,0,0,0,2,21.12h0a2,2,0,0,1,0,.25,1.28,1.28,0,0,1-1.28,1.28H639l.08-21Z" transform="translate(-290.32 -306.01)"/><path d="M687,378.06s0,0,0,0,0,0,0,0a1.16,1.16,0,0,1,.06.38,1.28,1.28,0,0,1-1.28,1.28h-9.25l-3.16-32.24s.45-.16,1.16-.45c7.3,21.25,12.36,30.76,12.36,30.76h0l0,.06Z" transform="translate(-290.32 -306.01)"/><path d="M684.67,376.61l-8.28,2.85-15-43.7h0l-.71-2.06s0,0,0-.05l-.26-.77-.16-.47-.67-1.94-.56-1.64-.62-1.78-1.82-5.3-1.18-3.46-.25-.73L654,314.33l4.23-4.43,2.58-2.7Z" transform="translate(-290.32 -306.01)"/><path d="M678,379.14l-1.72.59a1.28,1.28,0,0,1-1.63-.8,1.05,1.05,0,0,1-.06-.24h0s-1.85-10.62-9.15-31.87c.74-.2,1.19-.35,1.19-.35Z" transform="translate(-290.32 -306.01)"/><rect x="385.53" y="72.61" width="1.63" height="1.17"/><path d="M658.73,308.51l-.48,1.39-2.62,7.65-.25.73-1.19,3.46-1.82,5.3-.62,1.78-.56,1.64-.67,1.94-.16.47-.26.77s0,0,0,.05l-.71,2.07-15,43.68-3.83-1.32,20.63-60.06.17-.51,3.56-10.35Z" transform="translate(-290.32 -306.01)"/><circle cx="341.43" cy="72.49" r="1.28"/><polygon points="349.71 57.44 341.44 70.73 341.44 73.77 349.7 73.77 349.71 57.44"/><circle cx="369.3" cy="1.61" r="1.28"/><circle cx="365.78" cy="1.61" r="1.28"/><polygon points="365.78 0.33 369.3 0.33 370.58 4.11 369.07 10.11 363.96 8.07 365.78 0.33"/><rect x="359.24" y="22.8" width="15.41" height="4.05"/><path d="M628.77,378.06s0,0,0,0,0,0,0,0a1.16,1.16,0,0,0-.06.38A1.28,1.28,0,0,0,630,379.8h9.25l.17-18.67s2.54-13.73,1.83-14c-7.3,21.25-12.36,30.76-12.36,30.76h0l0,.06Z" transform="translate(-290.32 -306.01)"/><path d="M652.81,317.74l-1.64,12.72h9.22l-2.22-12.89Zm.74,11.08a1.29,1.29,0,0,1-1.28-1.28,1.35,1.35,0,0,1,.1-.5l1.82-5.3a1.31,1.31,0,0,1,1.19-.79,1.28,1.28,0,0,1,1.18.79l1.82,5.3a1.35,1.35,0,0,1,.1.5,1.28,1.28,0,0,1-1.28,1.28Z" transform="translate(-290.32 -306.01)"/><path d="M661.38,332.4v3.35l-.71-2.06s0,0,0-.05a1.29,1.29,0,0,0-1.18-.77h-8.19a1.29,1.29,0,0,0-1.18.77s0,0,0,.05l-.71,2.07H649V332.4Z" transform="translate(-290.32 -306.01)"/><path d="M696.82,379.47H695a1.28,1.28,0,0,1-1.28-1.28,1,1,0,0,1,0-.24h0s1.7-10.65,1.7-33.12c.76.05,1.24.05,1.24.05Z" transform="translate(-290.32 -306.01)"/><path d="M696.82,306H695a1.29,1.29,0,0,0-1.28,1.28,1,1,0,0,0,0,.25h0s1.7,10.65,1.7,33.12c.76-.05,1.24-.05,1.24-.05Z" transform="translate(-290.32 -306.01)"/><path d="M702.48,379.47h1.82a1.28,1.28,0,0,0,1.28-1.28,1,1,0,0,0,0-.24h0s-1.69-10.65-1.69-33.12c-.76.05-1.24.05-1.24.05Z" transform="translate(-290.32 -306.01)"/><path d="M716.16,306H695.27v73.46H704V332.55h12.13c10.6,0,19.19-5.94,19.19-13.27S726.76,306,716.16,306Zm0,22.48H704V310.07h12.13c5.76,0,10.43,4.12,10.43,9.21S721.92,328.49,716.16,328.49Z" transform="translate(-290.32 -306.01)"/><path d="M710.8,330.07V328.5h-5.5a1.27,1.27,0,0,1-1.27-1.27v-5.39h-1.46v8.23Z" transform="translate(-290.32 -306.01)"/><path d="M710.79,308.51v1.57h-5.5a1.27,1.27,0,0,0-1.27,1.27v5.39h-1.46v-8.23Z" transform="translate(-290.32 -306.01)"/><path d="M710.79,331v1.57h-5.5a1.27,1.27,0,0,0-1.27,1.27v5.39h-1.46V331Z" transform="translate(-290.32 -306.01)"/><rect x="453.04" y="0.59" width="8.76" height="73.44"/><path d="M744.92,306.6H743.1a1.28,1.28,0,0,0-1.28,1.28,1.94,1.94,0,0,0,0,.24h0s1.7,10.65,1.7,33.11c.76-.05,1.24-.05,1.24-.05Z" transform="translate(-290.32 -306.01)"/><path d="M744.92,380H743.1a1.28,1.28,0,0,1-1.28-1.28,2.11,2.11,0,0,1,0-.25h0s1.7-10.64,1.7-33.1c.76,0,1.24,0,1.24,0Z" transform="translate(-290.32 -306.01)"/><path d="M750.58,306.6h1.82a1.28,1.28,0,0,1,1.28,1.28,1,1,0,0,1,0,.24h0S752,318.77,752,341.23c-.76-.05-1.24-.05-1.24-.05Z" transform="translate(-290.32 -306.01)"/><rect x="454.59" y="69.98" width="31.08" height="4.05"/><path d="M777.61,378.45c-.14-.64-.7-3.23-2-7.76-.15-.55-.32-1.12-.5-1.73a1.27,1.27,0,0,0-2.25-.37S768,376,760.44,376c-2.27,0-1.86,1.67.32,2.25,3.85,1,12.19,1.65,14.81,1.8h.79a1.29,1.29,0,0,0,1.29-1.28A2.16,2.16,0,0,0,777.61,378.45Z" transform="translate(-290.32 -306.01)"/><rect x="501.17" y="0.58" width="8.76" height="73.46"/><path d="M793.05,380.06h-1.82a1.29,1.29,0,0,1-1.29-1.28,1,1,0,0,1,0-.25h0s1.7-10.64,1.7-33.11c.76.05,1.24.05,1.24.05Z" transform="translate(-290.32 -306.01)"/><path d="M793.05,306.6h-1.82a1.28,1.28,0,0,0-1.28,1.28,1.94,1.94,0,0,0,0,.24h0s1.7,10.65,1.7,33.11c.76-.05,1.24-.05,1.24-.05Z" transform="translate(-290.32 -306.01)"/><rect x="502.72" y="0.58" width="34.03" height="4.05"/><path d="M828.69,308.18c-.13.65-.7,3.23-2,7.76-.15.55-.32,1.12-.5,1.73A1.27,1.27,0,0,1,824,318s-4.92-7.39-12.44-7.39c-2.27,0-1.86-1.67.32-2.25,3.85-1,12.19-1.66,14.82-1.8h.79a1.28,1.28,0,0,1,1.28,1.29A2.17,2.17,0,0,1,828.69,308.18Z" transform="translate(-290.32 -306.01)"/><rect x="501.41" y="23.06" width="31.08" height="4.05"/><path d="M822.82,328.8v1.82l-18.61-.07-4,0h-.92l-6.71,0v-1.28q3.58,0,6.71-.13l.73,0h.19l1.28,0,2.67-.1c3.55-.15,6.52-.34,8.95-.53,5.47-.43,8.13-.85,8.13-.85l.24,0A1.28,1.28,0,0,1,822.82,328.8Z" transform="translate(-290.32 -306.01)"/><path d="M822.82,331.57v1.82a1.29,1.29,0,0,1-1.29,1.29l-.24,0s-2.66-.42-8.13-.85c-2.43-.18-5.4-.37-8.95-.52l-2.65-.11h0l-1.27,0h-.41l-.51,0q-3.12-.09-6.71-.13v-1.28l6.71,0h.92l4,0Z" transform="translate(-290.32 -306.01)"/><rect x="502.72" y="69.99" width="34.03" height="4.05"/><path d="M828.69,378.47c-.13-.64-.7-3.23-2-7.76-.15-.55-.32-1.12-.5-1.73a1.27,1.27,0,0,0-2.25-.37S819,376,811.52,376c-2.27,0-1.86,1.68.32,2.26,3.85,1,12.19,1.65,14.82,1.8h.79a1.28,1.28,0,0,0,1.28-1.29A2.17,2.17,0,0,0,828.69,378.47Z" transform="translate(-290.32 -306.01)"/><path d="M807,377.57V376h-5.5a1.27,1.27,0,0,1-1.27-1.27v-5.39H798.8v8.23Z" transform="translate(-290.32 -306.01)"/><path d="M807,309.08v1.57h-5.5a1.27,1.27,0,0,0-1.27,1.27v5.39H798.8v-8.23Z" transform="translate(-290.32 -306.01)"/><path d="M804.21,328.92v4.36l-2.65-.11h0a1.28,1.28,0,0,0-1.27,1.28v3h-.92v-12h.92v2.24a1.28,1.28,0,0,0,1.28,1.28Z" transform="translate(-290.32 -306.01)"/><path d="M758.9,377.56V376h-5.5a1.27,1.27,0,0,1-1.27-1.27v-5.39h-1.46v8.23Z" transform="translate(-290.32 -306.01)"/><rect x="595.93" y="0.54" width="8.76" height="73.46"/><path d="M887.81,379.68V380H886a1.27,1.27,0,0,1-1.15-.72,1.32,1.32,0,0,1-.13-.56,2,2,0,0,1,0-.25s.22-1.34.5-4.08c.11-1.12.23-2.47.35-4,.26-3.35.52-7.76.68-13.25q.16-5.21.17-11.73c.76.05,1.24.05,1.24.05l.12,29.72Z" transform="translate(-290.32 -306.01)"/><path d="M887.81,306.55v.34l0,4.32-.12,29.93s-.48,0-1.24.05q0-6.53-.17-11.73c-.16-5.49-.42-9.9-.68-13.25-.13-1.71-.26-3.14-.38-4.31-.27-2.56-.47-3.82-.47-3.82a2,2,0,0,1,0-.25,1.22,1.22,0,0,1,.09-.46,1.26,1.26,0,0,1,1.19-.82Z" transform="translate(-290.32 -306.01)"/><path d="M895,306.51c-.77,0-1.75,0-2.89,0s-2.73.14-4.32.34c-.5.06-1,.13-1.55.22s-1,.16-1.46.26a1.22,1.22,0,0,0-.09.46,2,2,0,0,0,0,.25s.2,1.26.47,3.82c.12,1.17.25,2.6.38,4.31.26,3.35.52,7.76.68,13.25V357.1c-.16,5.49-.42,9.9-.68,13.25-.12,1.58-.24,2.93-.35,4-.28,2.74-.5,4.08-.5,4.08a2,2,0,0,0,0,.25,1.32,1.32,0,0,0,.13.56l1.42.21,1.55.18c2.83.27,5.34.28,7.21.28,9.5,0,35.7,0,35.7-36.64S902.6,306.51,895,306.51Zm4.79,69.08a28.94,28.94,0,0,1-3.52.29c-.51,0-.94,0-1.27,0V310.56h1.28a32.81,32.81,0,0,1,3.63.26c8.41,1.06,22,6.33,22,32.49C922,369,907.89,374.44,899.81,375.59Z" transform="translate(-290.32 -306.01)"/><path d="M895,310.56V375.9c-.42,0-1,0-1.66,0a30.34,30.34,0,0,1-5.57-.74c-.5-.12-1-.25-1.53-.4l-1-.34c.11-1.12.23-2.47.35-4,.26-3.35.52-7.76.68-13.25V329.46c-.16-5.49-.42-9.9-.68-13.25-.13-1.71-.26-3.14-.38-4.31.36-.12.71-.22,1.06-.32.52-.14,1-.26,1.53-.37a32.08,32.08,0,0,1,6.45-.64Z" transform="translate(-290.32 -306.01)"/><path d="M899.81,375.59v2.61h-6.45v-5.73H895v2.12a1.28,1.28,0,0,0,1.27,1.29A28.94,28.94,0,0,0,899.81,375.59Z" transform="translate(-290.32 -306.01)"/><path d="M899.93,309.85v1a32.81,32.81,0,0,0-3.63-.26h0a1.27,1.27,0,0,0-1.27,1.27V314h-.78v-4.1Z" transform="translate(-290.32 -306.01)"/><rect x="648.27" y="0.48" width="8.76" height="73.46"/><path d="M940.15,380h-1.82a1.28,1.28,0,0,1-1.28-1.28,1,1,0,0,1,0-.25h0s1.7-10.64,1.7-33.11c.76.05,1.24.05,1.24.05Z" transform="translate(-290.32 -306.01)"/><path d="M940.15,306.49h-1.82a1.28,1.28,0,0,0-1.28,1.28,2,2,0,0,0,0,.25h0s1.7,10.64,1.7,33.11c.76-.05,1.24-.05,1.24-.05Z" transform="translate(-290.32 -306.01)"/><rect x="649.83" y="0.48" width="34.03" height="4.05"/><path d="M975.79,308.08c-.13.64-.7,3.23-2,7.76-.15.54-.32,1.12-.5,1.73a1.27,1.27,0,0,1-2.25.37s-4.91-7.4-12.44-7.4c-2.27,0-1.86-1.67.32-2.25,3.86-1,12.19-1.65,14.82-1.8h.79a1.28,1.28,0,0,1,1.28,1.28A2.16,2.16,0,0,1,975.79,308.08Z" transform="translate(-290.32 -306.01)"/><rect x="648.51" y="22.96" width="31.08" height="4.05"/><path d="M969.92,328.7v1.82l-18.61-.07-3.95,0h-.92l-6.71,0v-1.28q3.59,0,6.71-.13l.73,0h.19l1.28,0,2.67-.1c3.55-.15,6.52-.34,9-.53,5.47-.43,8.13-.85,8.13-.85l.24,0A1.28,1.28,0,0,1,969.92,328.7Z" transform="translate(-290.32 -306.01)"/><path d="M969.92,331.47v1.82a1.29,1.29,0,0,1-1.29,1.29l-.24,0s-2.66-.42-8.13-.85c-2.43-.18-5.4-.37-9-.52l-2.65-.11h0l-1.27,0H947l-.51,0q-3.12-.09-6.71-.13v-1.28l6.71,0h.92l3.95,0Z" transform="translate(-290.32 -306.01)"/><rect x="649.82" y="69.89" width="34.03" height="4.05"/><path d="M975.79,378.36c-.13-.64-.7-3.23-2-7.76-.15-.54-.32-1.12-.5-1.73a1.27,1.27,0,0,0-2.25-.37s-4.92,7.4-12.44,7.4c-2.27,0-1.86,1.67.32,2.25,3.85,1,12.19,1.65,14.82,1.8h.79a1.28,1.28,0,0,0,1.28-1.28A2.16,2.16,0,0,0,975.79,378.36Z" transform="translate(-290.32 -306.01)"/><path d="M954.13,377.47V375.9h-5.5a1.27,1.27,0,0,1-1.27-1.27v-5.39H945.9v8.23Z" transform="translate(-290.32 -306.01)"/><path d="M954.13,309v1.57h-5.5a1.27,1.27,0,0,0-1.27,1.27v5.39H945.9V309Z" transform="translate(-290.32 -306.01)"/><path d="M951.31,328.82v4.36l-2.65-.11h0a1.28,1.28,0,0,0-1.27,1.28v3h-.92v-12h.92v2.24a1.28,1.28,0,0,0,1.28,1.28Z" transform="translate(-290.32 -306.01)"/><path d="M1028.24,356.6c0,14.21-9.2,23-24,23-12.45,0-22.73-9.17-23.88-20.84l8.76-2.2c0,11.2,4.34,19,15.12,19,12.26,0,15.24-9.93,15.24-19,0-6-1.19-10.53-3.6-13.69-2.9-3.79-6.2-4.9-11.64-6-12.64-2.61-17.73-8.66-17.73-15.66,0-8.3,8-15.06,17.73-15.06,8.91,0,16.31,5.61,17.55,12.89l-8.76,2.17c0-6.8-2.6-11-8.79-11-6.46,0-8.88,4.51-9,11.31-.08,6.39,3,10.26,9,11.29,8.61,1.49,14.75,4.14,18.76,8.77A22,22,0,0,1,1028.24,356.6Z" transform="translate(-290.32 -306.01)"/><path d="M981.06,355.37c.62-.2,3.15-1,7.71-2.17.55-.15,1.13-.29,1.75-.44a1.29,1.29,0,0,1,1.39.6,1.31,1.31,0,0,1,.06,1.17s-3.94,8-.17,14.47c1.14,2-9.36-2.51-10.14-4.63a23.6,23.6,0,0,1-1.48-7.14c0-.71,0-1.38.6-1.74A2.76,2.76,0,0,1,981.06,355.37Z" transform="translate(-290.32 -306.01)"/><path d="M1021.28,320.22c-.54.37-.93.7-5,3.1-.49.29-1,.6-1.56.91a1.26,1.26,0,0,1-1.5-.18,1.29,1.29,0,0,1-.39-1.1s1.53-8.75-3.93-13.93c-1.65-1.56,6,.35,7.67,1.87,3.82,3.46,4.76,6.47,5,7.3.19.63.4,1.32-.09,1.83A1.83,1.83,0,0,1,1021.28,320.22Z" transform="translate(-290.32 -306.01)"/><path d="M1037.92,379.47h-1.82a1.24,1.24,0,0,1-.73-.23,1.27,1.27,0,0,1-.55-1.05,1.1,1.1,0,0,1,0-.25s.42-2.66.85-8.13c.26-3.35.52-7.76.68-13.25q.17-5.21.17-11.73c.76.05,1.24.05,1.24.05Z" transform="translate(-290.32 -306.01)"/><path d="M1037.91,306h-1.82a1.28,1.28,0,0,0-1.28,1.28,1.07,1.07,0,0,0,0,.25h0s1.69,10.64,1.69,33.11c.77-.05,1.24-.05,1.24-.05Z" transform="translate(-290.32 -306.01)"/><path d="M1046.68,378.19a1.28,1.28,0,0,1-1.28,1.28h-1.82v-.33l.14-34.26s.48,0,1.24-.05q0,6.53.17,11.73c.16,5.49.42,9.9.68,13.25.43,5.47.85,8.13.85,8.13A2.29,2.29,0,0,1,1046.68,378.19Z" transform="translate(-290.32 -306.01)"/><path d="M1082.19,377.94s-.42-2.66-.85-8.13c-.2-2.51-.39-5.62-.54-9.33v-.31a44.5,44.5,0,0,0-1.15-8.31c-.13-.56-.26-1.13-.41-1.69h0a35.72,35.72,0,0,0-7.15-13.85,24.6,24.6,0,0,0-6.17-5.19,18.78,18.78,0,0,0-9.49-2.64,18.31,18.31,0,0,0-2.35.16v3.9h2.35c8.65,0,15.66,13.26,15.66,29.6v16a1.27,1.27,0,0,0,1.27,1.28h7.59a1.28,1.28,0,0,0,1.28-1.28A2.29,2.29,0,0,0,1082.19,377.94Z" transform="translate(-290.32 -306.01)"/><path d="M1046.67,307.3a1,1,0,0,1,0,.24s-.13.83-.33,2.53c-.14,1.33-.33,3.19-.52,5.6-.21,2.59-.41,5.8-.56,9.65,0,.61,0,1.24-.07,1.88,0,.42,0,.85,0,1.29,0,.24,0,.49,0,.74-.1,3.39-.16,7.21-.16,11.43-.76-.05-1.24-.05-1.24-.05l-.14-34.6h1.82A1.28,1.28,0,0,1,1046.67,307.3Z" transform="translate(-290.32 -306.01)"/><path d="M1080.22,307.52c0,.07,0,.15-.07.24s-.57,1.56-1.54,4.8c-.26.88-.55,1.88-.87,3-.48,1.72-1,3.74-1.6,6.06a8.9,8.9,0,0,1-.62,1.7c-.06.14-.13.28-.2.41s-.21.4-.33.6a12.28,12.28,0,0,1-1.57,2.09,15.19,15.19,0,0,1-1.36,1.29,18.91,18.91,0,0,1-4.78,2.87c-.44.19-.89.36-1.35.53h0a26.18,26.18,0,0,1-8.64,1.42h-12.13v46.92h-8.76V306h9a1.28,1.28,0,0,1,1.28,1.29,1,1,0,0,1,0,.24s-.13.83-.33,2.53h-1.2v18.42h12.13a10.86,10.86,0,0,0,8.65-4.06,8.88,8.88,0,0,0,.91-1.46,8.26,8.26,0,0,0,.85-3.07c0-.1,0-.2,0-.31q.18-3.36.38-5.89c.17-2.15.34-3.86.48-5.15q.08-.72.15-1.26a1.15,1.15,0,0,1,0-.26,1.29,1.29,0,0,1,1.25-1h9.25A1.29,1.29,0,0,1,1080.22,307.52Z" transform="translate(-290.32 -306.01)"/><path d="M1051.89,331v1.57h-5.5a1.27,1.27,0,0,0-1.27,1.27v5.39h-1.46V331Z" transform="translate(-290.32 -306.01)"/><path d="M1048.45,328.49v.74h-3.83v-3.91h.62c0,.61,0,1.24-.07,1.88a1.28,1.28,0,0,0,1.27,1.29Z" transform="translate(-290.32 -306.01)"/></g></svg>